<?xml version="1.0" standalone="no"?>
<!DOCTYPE svg PUBLIC "-//W3C//DTD SVG 20010904//EN"
 "http://www.w3.org/TR/2001/REC-SVG-20010904/DTD/svg10.dtd">
<svg version="1.0" xmlns="http://www.w3.org/2000/svg"
 width="717.000000pt" height="579.000000pt" viewBox="0 0 717.000000 579.000000"
 preserveAspectRatio="xMidYMid meet">
<metadata>
Created by potrace 1.16, written by Peter Selinger 2001-2019
</metadata>
<g transform="translate(0.000000,579.000000) scale(0.100000,-0.100000)"
fill="#000000" stroke="none">
<path d="M2933 5406 c-352 -67 -624 -314 -724 -658 -30 -105 -37 -315 -14
-429 33 -167 112 -319 231 -448 36 -39 70 -71 75 -71 5 0 -19 36 -55 79 -81
100 -127 182 -165 297 -58 172 -63 358 -15 527 23 77 27 67 9 -19 -19 -91 -19
-275 1 -372 35 -172 136 -355 261 -473 67 -63 154 -126 206 -150 26 -12 27
-15 27 -95 l0 -83 80 -31 c146 -56 239 -73 400 -74 l145 -1 7 95 c4 52 10 100
12 107 12 29 24 10 29 -46 2 -32 14 -79 25 -105 18 -39 25 -46 49 -46 15 0 35
-4 43 -10 12 -7 12 -12 -4 -29 -18 -20 -17 -21 29 -50 133 -84 301 -60 408 59
54 60 77 121 77 206 0 110 -47 201 -135 260 -58 39 -55 41 18 14 146 -55 229
-227 180 -372 -11 -32 -16 -58 -12 -58 5 0 21 24 36 53 24 45 28 64 28 137 0
73 -4 93 -28 142 -34 68 -101 131 -165 153 -26 10 -55 20 -64 23 -15 6 -11 16
27 76 99 153 140 317 132 525 -9 244 -82 420 -247 594 -115 122 -271 214 -437
258 -102 27 -363 35 -470 15z"/>
<path d="M1948 3203 c-36 -14 -49 -35 -29 -47 16 -10 70 -173 91 -275 23 -116
26 -260 8 -433 l-12 -118 -478 0 c-335 0 -484 -3 -502 -11 -58 -27 -56 13 -56
-1062 l0 -985 -37 -7 c-82 -15 -117 -63 -111 -156 l3 -59 -337 0 c-321 0 -338
-1 -338 -18 0 -18 25 -19 533 -25 680 -9 2515 -9 4740 0 1685 6 1747 7 1747
25 0 17 -11 18 -144 18 l-145 0 90 184 c52 107 89 196 89 214 0 16 -9 40 -19
53 -18 23 -26 24 -166 27 l-148 4 65 43 c82 55 158 138 208 229 41 72 92 217
105 293 l7 42 -39 -5 c-307 -41 -497 -160 -619 -386 -18 -35 -34 -56 -34 -47
0 32 -90 195 -135 247 -51 57 -142 126 -220 165 -58 29 -190 71 -254 82 l-44
7 7 -62 c11 -93 52 -225 99 -315 52 -98 156 -207 247 -258 l65 -37 -157 0
c-149 0 -158 -1 -183 -23 -45 -38 -37 -71 63 -275 l90 -182 -561 0 -562 0 3
62 c5 106 -47 158 -156 158 l-49 0 -6 503 c-4 276 -7 729 -7 1007 l0 505 -26
23 c-25 22 -28 22 -331 22 l-305 0 6 63 c9 86 11 507 2 535 -7 21 -12 22 -121
22 -104 0 -116 -2 -139 -22 -32 -28 -32 -26 -22 -345 l8 -253 -296 0 c-256 0
-296 2 -296 15 0 13 -42 15 -320 15 -278 0 -320 -2 -320 -15 0 -12 -17 -15
-95 -15 l-94 0 5 63 c8 80 -12 402 -32 515 -31 182 -68 259 -143 291 -59 25
-139 27 -193 4z m991 -1360 c27 -17 58 -48 76 -77 26 -42 30 -59 30 -115 -1
-76 -17 -115 -71 -163 -20 -18 -50 -46 -66 -62 -89 -83 -206 -87 -295 -11 -53
45 -77 106 -71 179 4 46 14 68 61 139 77 116 134 150 236 142 36 -2 69 -13
100 -32z"/>
<path d="M2734 1829 c-23 -11 -50 -30 -60 -41 -19 -21 -19 -21 1 -14 113 44
247 -23 281 -140 9 -32 13 -68 9 -91 -6 -37 -6 -37 10 -18 47 56 58 142 26
210 -47 101 -168 144 -267 94z"/>
</g>
</svg>
